<svg width="3475" height="769" viewBox="0 0 3475 769" fill="none" xmlns="http://www.w3.org/2000/svg">
<g clip-path="url(#clip0_211_95)">
<path fill-rule="evenodd" clip-rule="evenodd" d="M1402.75 214.63H1268.14L1133.09 596.128L1145.93 614.91H1323.04L1346.07 590.114V614.91H1544.44L1402.75 214.63ZM1246.88 326.212L1344.3 221.714V292.56L1443.48 402.372V471.447L1344.3 359.864V437.795V439.158L1377.95 478.531L1344.3 513.954V439.158L1343.71 438.467L1216.77 583.029L1215 501.556L1344.3 359.864V292.56L1246.88 398.829V326.212Z" fill="#4FC2BD"/>
<path d="M892.654 214.63H781.071H779.3V629.079H892.654V437.795L1018.41 614.91H1126.45L1133.09 596.128L1000.69 402.372L1135.3 214.63H1018.41L892.654 382.889V214.63Z" fill="#4FC2BD"/>
<path d="M1126.45 614.91H1145.93L1133.09 596.128L1126.45 614.91Z" fill="#4FC2BD"/>
<path fill-rule="evenodd" clip-rule="evenodd" d="M1588.72 214.63V614.91H1686.13V483.845C1686.13 483.845 1732.25 490.56 1760.52 483.845C1829.6 467.433 1882.73 420.238 1882.73 349.237C1882.73 349.237 1875.64 255.366 1824.28 232.341C1772.92 209.316 1753.43 214.63 1753.43 214.63H1588.72ZM1687.9 402.372V301.416C1687.9 301.416 1712.39 296.725 1726.87 301.416C1750.64 309.119 1768.08 324.284 1769.37 349.237C1770.75 375.775 1752.11 394.059 1726.87 402.372C1712.41 407.132 1687.9 402.372 1687.9 402.372Z" fill="#4FC2BD"/>
<path fill-rule="evenodd" clip-rule="evenodd" d="M1882.73 614.91L2020.88 214.63H2160.8L2298.95 614.91H2194.45L2174.97 544.064H2020.88L1997.85 614.91H1882.73ZM2036.82 466.133L2090.84 322.67L2148.4 466.133H2036.82Z" fill="#4FC2BD"/>
<path d="M2359.17 214.63H2637.24V301.416H2461.89V614.91H2357.4V214.63H2359.17Z" fill="#4FC2BD"/>
<path fill-rule="evenodd" clip-rule="evenodd" d="M2601.82 614.91L2739.96 214.63H2879.89L3018.04 614.91H2913.54L2894.06 544.064H2739.96L2716.94 614.91H2601.82ZM2755.91 466.133L2809.93 322.67L2867.49 466.133H2755.91Z" fill="#4FC2BD"/>
<path d="M3080.03 214.63H3184.52L3182.75 467.904L3372.27 214.63H3474.99V614.91H3372.27V354.551L3182.75 614.91H3081.8L3080.03 214.63Z" fill="#4FC2BD"/>
<path d="M3179.21 99.5046V150.868H3365.18V99.5046H3179.21Z" fill="#4FC2BD"/>
<path d="M269.215 195.147L183.319 99.5047L355.111 99.5047L269.215 195.147Z" fill="#50AFA9"/>
<path d="M439.246 195.147L353.35 99.5047L525.142 99.5047L439.246 195.147Z" fill="#50AFA9"/>
<path d="M184.2 290.789L98.304 195.147L270.097 195.147L184.2 290.789Z" fill="#50AFA9"/>
<path d="M354.231 290.789L268.334 195.147L440.127 195.147L354.231 290.789Z" fill="#50AFA9"/>
<path d="M524.261 290.789L438.365 195.147L610.157 195.147L524.261 290.789Z" fill="#50AFA9"/>
<path d="M269.215 386.431L183.319 290.789L355.111 290.789L269.215 386.431Z" fill="#50AFA9"/>
<path d="M439.246 386.431L353.35 290.789L525.142 290.789L439.246 386.431Z" fill="#50AFA9"/>
<path d="M184.2 482.073L98.304 386.431L270.097 386.431L184.2 482.073Z" fill="#50AFA9"/>
<path d="M354.231 482.073L268.334 386.431L440.127 386.431L354.231 482.073Z" fill="#50AFA9"/>
<path d="M524.261 482.073L438.365 386.431L610.157 386.431L524.261 482.073Z" fill="#50AFA9"/>
<path d="M99.1846 386.431L13.2883 290.789L185.081 290.789L99.1846 386.431Z" fill="#50AFA9"/>
<path d="M609.276 386.431L523.38 290.789L695.173 290.789L609.276 386.431Z" fill="#50AFA9"/>
<path d="M269.215 577.716L183.319 482.073L355.111 482.073L269.215 577.716Z" fill="#50AFA9"/>
<path d="M439.246 577.716L353.35 482.073L525.142 482.073L439.246 577.716Z" fill="#50AFA9"/>
<path d="M184.2 673.358L98.304 577.716L270.097 577.716L184.2 673.358Z" fill="#50AFA9"/>
<path d="M354.231 673.358L268.334 577.716L440.127 577.716L354.231 673.358Z" fill="#50AFA9"/>
<path d="M524.261 673.358L438.365 577.716L610.157 577.716L524.261 673.358Z" fill="#50AFA9"/>
<path d="M99.1846 577.716L13.2883 673.358H185.081L99.1846 577.716Z" fill="#4FC2BD"/>
<path d="M609.276 577.716L523.38 673.358H695.173L609.276 577.716Z" fill="#4FC2BD"/>
<path d="M269.215 577.716L183.319 673.358H355.111L269.215 577.716Z" fill="#4FC2BD"/>
<path d="M439.246 577.716L353.35 673.358H525.142L439.246 577.716Z" fill="#4FC2BD"/>
<path d="M99.1846 195.147L13.2883 290.789H185.081L99.1846 195.147Z" fill="#4FC2BD"/>
<path d="M609.276 195.147L523.38 290.789H695.173L609.276 195.147Z" fill="#4FC2BD"/>
<path d="M269.215 195.147L183.319 290.789H355.111L269.215 195.147Z" fill="#4FC2BD"/>
<path d="M439.246 195.147L353.35 290.789H525.142L439.246 195.147Z" fill="#4FC2BD"/>
<path d="M524.261 99.5046L438.365 195.147H610.157L524.261 99.5046Z" fill="#4FC2BD"/>
<path d="M184.2 99.5046L98.304 195.147H270.097L184.2 99.5046Z" fill="#4FC2BD"/>
<path d="M226.708 49.9124L184.2 99.5046H269.215L226.708 49.9124Z" fill="#4FC2BD"/>
<path d="M311.716 49.9124L269.207 99.5046H354.23L311.716 49.9124Z" fill="#4FC2BD"/>
<path d="M269.215 99.5046L226.707 49.9124H311.723L269.215 99.5046Z" fill="#50AFA9"/>
<path d="M269.215 0.320068L226.707 49.9123H311.723L269.215 0.320068Z" fill="#50AFA9"/>
<path d="M396.739 49.9124L354.23 99.5046H439.245L396.739 49.9124Z" fill="#4FC2BD"/>
<path d="M481.746 49.9124L439.238 99.5046H524.261L481.746 49.9124Z" fill="#4FC2BD"/>
<path d="M439.245 99.5046L396.738 49.9124H481.753L439.245 99.5046Z" fill="#50AFA9"/>
<path d="M439.245 0.320068L396.738 49.9123H481.753L439.245 0.320068Z" fill="#50AFA9"/>
<path d="M354.231 99.5046L268.334 195.147H440.127L354.231 99.5046Z" fill="#4FC2BD"/>
<path d="M524.261 290.789L438.365 386.431H610.157L524.261 290.789Z" fill="#4FC2BD"/>
<path fill-rule="evenodd" clip-rule="evenodd" d="M14.1701 304.958L14.1701 290.789L32.651 311.367C31.3496 310.339 29.9132 309.384 28.3382 308.501C23.3641 305.71 14.1701 304.958 14.1701 304.958Z" fill="#4FC2BD"/>
<path fill-rule="evenodd" clip-rule="evenodd" d="M14.1701 386.431H100.066L38.6493 318.046C41.263 322.322 42.5074 327.394 42.5074 333.297C42.5074 344.45 37.9469 352.431 28.3382 358.093C18.7295 363.755 14.1701 361.635 14.1701 361.635L14.1701 386.431Z" fill="#4FC2BD"/>
<path fill-rule="evenodd" clip-rule="evenodd" d="M14.1685 467.904L14.1685 482.073L32.6504 461.496C31.3489 462.523 29.9124 463.478 28.3373 464.362C23.363 467.152 14.1685 467.904 14.1685 467.904Z" fill="#50AFA9"/>
<path fill-rule="evenodd" clip-rule="evenodd" d="M14.1685 386.431H100.069L38.649 454.817C41.2629 450.541 42.5073 445.469 42.5073 439.566C42.5073 428.413 37.9466 420.432 28.3373 414.77C18.7281 409.107 14.1685 411.227 14.1685 411.227L14.1685 386.431Z" fill="#50AFA9"/>
<path fill-rule="evenodd" clip-rule="evenodd" d="M14.1701 496.243L14.1701 482.073L32.651 502.651C31.3496 501.624 29.9132 500.669 28.3382 499.785C23.3641 496.995 14.1701 496.243 14.1701 496.243Z" fill="#4FC2BD"/>
<path fill-rule="evenodd" clip-rule="evenodd" d="M14.1701 577.716H100.066L38.6493 509.33C41.263 513.606 42.5074 518.678 42.5074 524.581C42.5074 535.734 37.9469 543.715 28.3382 549.377C18.7295 555.04 14.1701 552.92 14.1701 552.92L14.1701 577.716Z" fill="#4FC2BD"/>
<path fill-rule="evenodd" clip-rule="evenodd" d="M14.1701 687.527L14.1701 673.358L32.651 693.936C31.3496 692.908 29.9132 691.953 28.3382 691.069C23.3641 688.279 14.1701 687.527 14.1701 687.527Z" fill="#4FC2BD"/>
<path fill-rule="evenodd" clip-rule="evenodd" d="M70.8459 769H14.1701L14.1701 744.204C14.1701 744.204 18.7295 746.324 28.3382 740.662C37.9469 734.999 42.5074 727.019 42.5074 715.866C42.5074 709.963 41.263 704.891 38.6493 700.615L80.9783 747.746C80.9783 747.746 77.7722 750.769 76.1593 753.06C72.3813 758.425 70.8459 769 70.8459 769Z" fill="#4FC2BD"/>
<path fill-rule="evenodd" clip-rule="evenodd" d="M695.176 687.527L695.176 673.358L676.694 693.936C677.996 692.908 679.432 691.953 681.007 691.069C685.982 688.279 695.176 687.527 695.176 687.527Z" fill="#4FC2BD"/>
<path fill-rule="evenodd" clip-rule="evenodd" d="M638.497 769H695.176L695.176 744.204C695.176 744.204 690.617 746.324 681.007 740.662C671.398 734.999 666.837 727.019 666.837 715.866C666.837 709.963 668.082 704.891 670.696 700.615L628.364 747.746C628.364 747.746 631.571 750.769 633.184 753.06C636.962 758.425 638.497 769 638.497 769Z" fill="#4FC2BD"/>
<path fill-rule="evenodd" clip-rule="evenodd" d="M14.1693 659.189L14.1693 673.358L32.4606 652.78C31.1725 653.808 29.7509 654.763 28.1921 655.646C23.269 658.437 14.1693 659.189 14.1693 659.189Z" fill="#50AFA9"/>
<path fill-rule="evenodd" clip-rule="evenodd" d="M14.1693 577.716H99.1846L38.3974 646.101C40.9843 641.825 42.216 636.753 42.216 630.85C42.216 619.697 37.7022 611.716 28.1921 606.054C18.6819 600.392 14.1693 602.512 14.1693 602.512L14.1693 577.716Z" fill="#50AFA9"/>
<path fill-rule="evenodd" clip-rule="evenodd" d="M184.205 673.358L250.754 747.459C250.754 747.459 247.73 750.693 246.195 753.06C242.626 758.566 240.882 769 240.882 769H212.541C212.541 769 209.592 755.427 203.682 749.517C197.772 743.609 184.201 740.662 184.201 740.662L184.205 673.358Z" fill="#4FC2BD"/>
<path fill-rule="evenodd" clip-rule="evenodd" d="M185.079 673.358L118.53 747.459C118.53 747.459 121.555 750.693 123.089 753.06C126.658 758.566 128.402 769 128.402 769H156.744C156.744 769 159.692 755.427 165.602 749.517C171.512 743.609 185.083 740.662 185.083 740.662L185.079 673.358Z" fill="#4FC2BD"/>
<path fill-rule="evenodd" clip-rule="evenodd" d="M354.236 673.358L420.785 747.459C420.785 747.459 417.761 750.693 416.227 753.06C412.657 758.566 410.913 769 410.913 769H382.572C382.572 769 379.624 755.427 373.713 749.517C367.803 743.609 354.232 740.662 354.232 740.662L354.236 673.358Z" fill="#4FC2BD"/>
<path fill-rule="evenodd" clip-rule="evenodd" d="M355.11 673.358L288.561 747.459C288.561 747.459 291.585 750.693 293.119 753.06C296.688 758.566 298.432 769 298.432 769H326.774C326.774 769 329.722 755.427 335.633 749.517C341.542 743.609 355.114 740.662 355.114 740.662L355.11 673.358Z" fill="#4FC2BD"/>
<path fill-rule="evenodd" clip-rule="evenodd" d="M524.266 673.358L590.815 747.459C590.815 747.459 587.791 750.693 586.257 753.06C582.688 758.566 580.944 769 580.944 769H552.602C552.602 769 549.654 755.427 543.743 749.517C537.834 743.609 524.262 740.662 524.262 740.662L524.266 673.358Z" fill="#4FC2BD"/>
<path fill-rule="evenodd" clip-rule="evenodd" d="M525.141 673.358L458.592 747.459C458.592 747.459 461.616 750.693 463.15 753.06C466.72 758.566 468.464 769 468.464 769H496.805C496.805 769 499.753 755.427 505.664 749.517C511.574 743.609 525.145 740.662 525.145 740.662L525.141 673.358Z" fill="#4FC2BD"/>
<path fill-rule="evenodd" clip-rule="evenodd" d="M13.2894 673.358L80.2519 747.918C80.2519 747.918 91.2672 740.662 99.1857 740.662C107.104 740.662 118.12 747.918 118.12 747.918L185.082 673.358H13.2894Z" fill="#50AFA9"/>
<path fill-rule="evenodd" clip-rule="evenodd" d="M184.199 673.358L251.161 747.918C251.161 747.918 262.176 740.662 270.095 740.662C278.013 740.662 289.029 747.918 289.029 747.918L355.991 673.358H184.199Z" fill="#50AFA9"/>
<path fill-rule="evenodd" clip-rule="evenodd" d="M524.259 673.358L591.222 747.918C591.222 747.918 602.237 740.662 610.155 740.662C618.074 740.662 629.089 747.918 629.089 747.918L696.052 673.358H524.259Z" fill="#50AFA9"/>
<path fill-rule="evenodd" clip-rule="evenodd" d="M354.229 673.358L421.191 747.918C421.191 747.918 432.207 740.662 440.125 740.662C448.044 740.662 459.059 747.918 459.059 747.918L526.021 673.358H354.229Z" fill="#50AFA9"/>
<path d="M184.2 290.789L98.304 386.431H270.097L184.2 290.789Z" fill="#4FC2BD"/>
<path d="M354.231 290.789L268.334 386.431H440.127L354.231 290.789Z" fill="#4FC2BD"/>
<path d="M780.438 365.604L836.983 416.387V314.821L780.438 365.604Z" fill="#50AFA9"/>
<path d="M780.438 466.138L836.983 516.921V415.354L780.438 466.138Z" fill="#50AFA9"/>
<path d="M780.438 265.077L836.983 315.861V214.294L780.438 265.077Z" fill="#50AFA9"/>
<path d="M836.983 214.823L780.438 265.606V214.825L836.983 214.823Z" fill="#4FC2BD"/>
<path d="M836.99 415.867L780.445 466.651V365.084L836.99 415.867Z" fill="#4FC2BD"/>
<path d="M836.99 315.348L780.445 366.131V264.564L836.99 315.348Z" fill="#4FC2BD"/>
<path d="M780.438 566.657L836.983 617.441V515.874L780.438 566.657Z" fill="#50AFA9"/>
<path d="M836.99 516.401L780.445 567.184V465.618L836.99 516.401Z" fill="#4FC2BD"/>
<path d="M836.118 365.604L892.663 416.387V314.821L836.118 365.604Z" fill="#50AFA9"/>
<path d="M836.118 466.138L892.663 516.921V415.354L836.118 466.138Z" fill="#50AFA9"/>
<path d="M836.118 265.077L892.663 315.861V214.294L836.118 265.077Z" fill="#50AFA9"/>
<path d="M892.671 214.816L836.126 265.6V214.827L892.671 214.816Z" fill="#4FC2BD"/>
<path d="M892.671 415.867L836.126 466.651V365.084L892.671 415.867Z" fill="#4FC2BD"/>
<path d="M892.671 315.348L836.126 366.131V264.564L892.671 315.348Z" fill="#4FC2BD"/>
<path d="M836.118 566.657L892.663 617.441V515.874L836.118 566.657Z" fill="#50AFA9"/>
<path d="M892.671 516.401L836.126 567.184V465.618L892.671 516.401Z" fill="#4FC2BD"/>
<path d="M892.654 629.079H836.126V566.148L892.654 629.079Z" fill="#4FC2BD"/>
<path d="M99.1846 386.431L13.2883 482.073H185.081L99.1846 386.431Z" fill="#4FC2BD"/>
<path d="M609.276 386.431L523.38 482.073H695.173L609.276 386.431Z" fill="#4FC2BD"/>
<path d="M269.215 386.431L183.319 482.073H355.111L269.215 386.431Z" fill="#4FC2BD"/>
<path d="M439.246 386.431L353.35 482.073H525.142L439.246 386.431Z" fill="#4FC2BD"/>
<path d="M184.2 482.073L98.304 577.716H270.097L184.2 482.073Z" fill="#4FC2BD"/>
<path d="M354.231 482.073L268.334 577.716H440.127L354.231 482.073Z" fill="#4FC2BD"/>
<path d="M524.261 482.073L438.365 577.716H610.157L524.261 482.073Z" fill="#4FC2BD"/>
<path d="M99.1846 577.716L13.2883 482.073L185.081 482.073L99.1846 577.716Z" fill="#50AFA9"/>
<path d="M609.276 577.716L523.38 482.073L695.173 482.073L609.276 577.716Z" fill="#50AFA9"/>
<path fill-rule="evenodd" clip-rule="evenodd" d="M695.176 304.958L695.176 290.789L676.694 311.367C677.996 310.339 679.432 309.384 681.007 308.501C685.982 305.71 695.176 304.958 695.176 304.958Z" fill="#4FC2BD"/>
<path fill-rule="evenodd" clip-rule="evenodd" d="M695.176 386.431H609.275L670.696 318.046C668.082 322.322 666.837 327.394 666.837 333.297C666.837 344.45 671.398 352.431 681.007 358.093C690.617 363.755 695.176 361.635 695.176 361.635L695.176 386.431Z" fill="#4FC2BD"/>
<path fill-rule="evenodd" clip-rule="evenodd" d="M695.176 467.904L695.176 482.073L676.694 461.496C677.996 462.523 679.432 463.478 681.007 464.362C685.982 467.152 695.176 467.904 695.176 467.904Z" fill="#50AFA9"/>
<path fill-rule="evenodd" clip-rule="evenodd" d="M695.176 386.431H609.275L670.696 454.817C668.082 450.541 666.837 445.469 666.837 439.566C666.837 428.413 671.398 420.432 681.007 414.77C690.617 409.107 695.176 411.227 695.176 411.227L695.176 386.431Z" fill="#50AFA9"/>
<path fill-rule="evenodd" clip-rule="evenodd" d="M695.176 496.243L695.176 482.073L676.694 502.651C677.996 501.624 679.432 500.669 681.007 499.785C685.982 496.995 695.176 496.243 695.176 496.243Z" fill="#4FC2BD"/>
<path fill-rule="evenodd" clip-rule="evenodd" d="M695.176 577.716H609.275L670.696 509.33C668.082 513.606 666.837 518.678 666.837 524.581C666.837 535.734 671.398 543.715 681.007 549.377C690.617 555.04 695.176 552.92 695.176 552.92L695.176 577.716Z" fill="#4FC2BD"/>
<path fill-rule="evenodd" clip-rule="evenodd" d="M695.176 659.189L695.176 673.358L676.694 652.78C677.996 653.808 679.432 654.763 681.007 655.646C685.982 658.437 695.176 659.189 695.176 659.189Z" fill="#50AFA9"/>
<path fill-rule="evenodd" clip-rule="evenodd" d="M695.176 577.716H609.275L670.696 646.101C668.082 641.825 666.837 636.753 666.837 630.85C666.837 619.697 671.398 611.716 681.007 606.054C690.617 600.392 695.176 602.512 695.176 602.512L695.176 577.716Z" fill="#50AFA9"/>
</g>
<defs>
<clipPath id="clip0_211_95">
<rect width="3475" height="768.68" fill="white" transform="translate(0 0.320068)"/>
</clipPath>
</defs>
</svg>
