<?xml version="1.0" standalone="no"?>
<!DOCTYPE svg PUBLIC "-//W3C//DTD SVG 20010904//EN"
 "http://www.w3.org/TR/2001/REC-SVG-20010904/DTD/svg10.dtd">
<svg version="1.0" xmlns="http://www.w3.org/2000/svg"
 width="1110.000000pt" height="1280.000000pt" viewBox="0 0 1110.000000 1280.000000"
 preserveAspectRatio="xMidYMid meet">
<metadata>
Created by potrace 1.15, written by Peter Selinger 2001-2017
</metadata>
<g transform="translate(0.000000,1280.000000) scale(0.100000,-0.100000)"
fill="#000000" stroke="none">
<path d="M164 12786 c-4 -10 1 -25 11 -36 10 -11 16 -22 14 -25 -3 -2 -32 2
-64 10 -81 19 -97 19 -93 -2 2 -11 28 -27 70 -43 36 -14 69 -28 73 -32 9 -9
-90 -38 -131 -38 -40 0 -54 -18 -29 -37 27 -19 110 -16 185 7 101 31 136 29
213 -16 92 -54 88 -64 -26 -64 -68 0 -99 -4 -115 -16 -26 -18 -27 -27 -6 -48
12 -12 37 -16 106 -16 72 0 105 -5 162 -26 60 -21 81 -25 133 -19 75 8 99 -3
168 -77 85 -90 152 -254 224 -543 65 -259 135 -475 266 -814 45 -119 146 -400
223 -626 l141 -410 171 -343 c94 -189 180 -366 190 -393 26 -64 26 -152 0
-272 -26 -122 -43 -326 -35 -407 25 -233 71 -357 176 -470 39 -41 141 -169
228 -285 148 -196 181 -232 498 -550 l340 -341 -24 -34 c-13 -19 -47 -73 -75
-120 -28 -48 -77 -111 -112 -145 -55 -54 -74 -85 -190 -310 -86 -167 -175
-320 -267 -461 l-138 -212 -31 -133 c-17 -74 -47 -192 -66 -262 -19 -71 -32
-132 -29 -135 4 -4 34 -16 68 -27 l62 -20 5 -46 c3 -25 13 -58 23 -72 15 -23
24 -27 67 -27 47 0 50 -2 80 -45 47 -69 54 -70 124 -15 34 26 69 57 80 69 l19
20 45 -39 c51 -45 52 -46 93 -24 27 13 33 14 47 1 10 -8 42 -26 72 -41 l55
-26 23 27 c33 39 68 119 91 210 46 180 86 259 145 287 17 8 73 22 124 32 52 9
103 25 116 35 22 18 24 24 19 101 -6 112 5 158 44 183 17 11 39 32 49 47 10
15 31 29 48 32 17 4 57 25 89 47 32 23 60 40 61 38 2 -2 8 -152 15 -334 l11
-330 82 -295 c45 -162 86 -298 90 -301 5 -3 31 -144 58 -314 34 -212 65 -369
101 -506 l52 -199 -37 -337 c-20 -186 -41 -392 -46 -458 -6 -66 -15 -147 -20
-180 -5 -33 -16 -130 -25 -215 -37 -363 -71 -555 -160 -887 l-85 -317 0 -171
c0 -161 2 -179 34 -311 46 -184 85 -293 161 -444 58 -114 68 -128 115 -158 50
-32 51 -32 103 -20 49 12 54 17 82 68 43 80 46 194 11 391 -25 142 -26 149
-11 227 26 138 38 159 129 247 63 61 91 97 119 154 53 107 52 114 -48 221
-153 164 -156 184 -56 480 38 113 105 302 149 420 98 264 162 460 204 622 l31
123 -2 275 c-2 381 -15 564 -52 740 l-31 145 41 580 c31 445 41 643 42 850 1
324 6 400 45 662 l29 202 160 90 c144 81 348 183 478 240 39 16 47 24 43 39
-8 25 107 118 158 127 24 5 48 20 72 47 35 39 37 40 86 34 28 -4 63 -10 79
-13 23 -4 30 0 43 26 10 19 27 33 44 37 60 13 62 15 62 46 0 17 14 72 32 122
34 97 40 162 25 271 l-8 60 88 43 c48 24 141 73 206 109 88 49 197 94 440 182
298 109 335 125 492 215 197 114 287 147 612 226 l208 51 265 136 c314 161
436 229 670 375 96 61 190 118 210 128 43 22 196 66 380 110 173 41 281 75
351 110 30 16 143 100 250 187 107 88 223 179 258 204 101 69 252 286 282 402
10 43 9 48 -20 90 -17 25 -52 64 -78 87 -45 40 -51 42 -95 37 -100 -12 -270
-102 -426 -225 -44 -35 -162 -151 -263 -258 -248 -264 -268 -278 -545 -369
-308 -102 -448 -131 -883 -186 -548 -69 -848 -134 -1153 -248 -117 -44 -258
-89 -313 -101 -112 -24 -362 -86 -391 -96 -10 -4 0 7 23 24 61 45 63 67 14
150 -24 42 -41 83 -41 102 0 36 -18 46 -57 32 -26 -9 -29 -7 -48 32 -20 40
-22 41 -71 40 -34 -1 -81 -15 -149 -44 -74 -31 -121 -44 -180 -50 -102 -11
-180 -37 -330 -110 -147 -71 -255 -143 -450 -297 -119 -95 -160 -122 -200
-132 -27 -7 -185 -83 -350 -169 l-300 -156 -65 2 c-36 0 -241 1 -457 1 l-391
0 -60 50 -60 50 -7 85 c-15 179 -4 271 64 516 34 124 75 266 92 316 l30 91
167 160 c92 87 262 242 377 343 116 101 373 345 572 541 l362 356 188 118
c111 71 215 145 257 185 39 36 109 99 156 140 47 41 158 146 247 232 199 193
441 380 481 372 15 -3 109 -18 209 -34 181 -28 183 -29 272 -80 92 -53 125
-59 145 -28 8 13 6 26 -7 53 -15 31 -32 43 -118 84 l-101 48 81 57 80 57 48
-16 c162 -56 413 -61 413 -9 0 15 -9 17 -128 33 -123 16 -130 24 -41 52 80 24
109 47 109 86 l0 25 -77 -6 c-165 -14 -579 -57 -593 -61 -9 -3 -82 -9 -163
-15 -81 -5 -169 -15 -195 -21 -108 -26 -285 -129 -544 -317 -122 -89 -608
-388 -821 -507 -56 -31 -88 -60 -180 -166 -126 -145 -375 -359 -694 -597 -163
-121 -200 -144 -355 -217 -95 -44 -256 -125 -357 -180 -155 -83 -200 -113
-289 -191 l-106 -92 -31 20 c-31 21 -65 56 -91 94 -13 19 -13 25 7 58 15 27
31 39 62 47 54 14 189 82 248 124 79 56 103 65 178 65 38 0 81 4 95 10 31 11
83 81 135 180 88 170 91 243 16 320 -34 34 -47 57 -55 96 -47 218 -207 423
-422 542 -53 28 -100 52 -106 52 -7 0 -47 12 -89 27 -69 24 -93 27 -208 28
-165 0 -226 -17 -296 -82 -51 -48 -77 -101 -83 -171 -2 -27 -12 -53 -27 -70
-13 -15 -27 -31 -30 -35 -4 -5 -16 2 -28 14 -21 23 -21 23 -21 1 0 -11 5 -24
12 -28 18 -11 -17 -21 -104 -29 -89 -9 -107 -22 -92 -64 14 -35 7 -51 -21 -51
-35 0 -51 -26 -38 -60 10 -27 9 -29 -16 -32 -24 -3 -26 -6 -23 -46 2 -39 0
-44 -31 -62 -19 -11 -39 -31 -45 -45 -20 -44 2 -77 119 -175 117 -98 188 -186
221 -272 l19 -51 -26 -161 c-36 -225 -64 -326 -91 -326 -37 0 -142 155 -377
555 -121 207 -186 375 -252 659 -63 268 -126 439 -202 546 -40 57 -120 208
-240 455 -99 204 -186 384 -192 401 -15 39 -55 77 -206 196 -101 78 -142 104
-258 156 -76 34 -166 82 -200 105 l-62 44 -77 -5 c-67 -4 -84 -1 -135 22 -31
15 -65 34 -75 43 -16 14 -18 14 -24 -1z"/>
</g>
</svg>
